<?xml version="1.0" encoding="utf-8"?>
<!-- Generator: Adobe Illustrator 25.0.0, SVG Export Plug-In . SVG Version: 6.00 Build 0)  -->
<svg version="1.1" id="Capa_1" xmlns="http://www.w3.org/2000/svg" xmlns:xlink="http://www.w3.org/1999/xlink" x="0px" y="0px"
	 viewBox="0 0 1080 1080" style="enable-background:new 0 0 1080 1080;" xml:space="preserve">
<style type="text/css">
	.st0{fill:#1D1D1B;}
	.st1{fill:url(#SVGID_1_);}
	.st2{fill:#B51504;}
</style>
<g>
	<g>
		<path class="st0" d="M271.04,496.43c0,0-13.73-35.16-99.16-31.04c0,0,19.78,11.54,31.31,26.37c0,0,0.82-10.65-8.52-18.68
			C194.68,473.08,243.85,468.96,271.04,496.43z"/>
		<path class="st0" d="M216.25,498.76l60.32,7.89c1.01,0.13,1.88,0.76,2.34,1.67l11.81,23.86c0.41,0.84,0.42,1.82,0.02,2.66
			l-4.23,8.87c-0.54,1.13-1.72,1.82-2.98,1.73l-56.98-4.29c-1.67-0.13-2.93-1.58-2.81-3.25l0.12-1.79c0.12-1.72-1.22-3.2-2.94-3.26
			l-3.74-0.12c-1.01-0.03-1.94-0.57-2.48-1.42l-3.27-5.19c-0.35-0.56-0.51-1.21-0.46-1.87l1.85-22.72
			C212.96,499.8,214.53,498.54,216.25,498.76z"/>
		<path class="st0" d="M185.31,505l17.82-2.81c0.92-0.15,1.77,0.53,1.84,1.46l2.77,37.21c0.07,0.93-0.66,1.71-1.59,1.71h-3.46
			c-0.67,0-1.27-0.41-1.49-1.04c-1.26-3.45-6-14.3-15.65-14.18c-0.87,0.01-1.57-0.72-1.57-1.59v-19.18
			C183.96,505.79,184.54,505.13,185.31,505z"/>
		<path class="st0" d="M283.6,561.17l10.17-3.76c0.48-0.18,0.98,0.18,0.98,0.68v2.93c0,0.21-0.09,0.4-0.24,0.54l-3.29,3
			c-0.35,0.32-0.31,0.88,0.08,1.14l2.61,1.76c0.18,0.12,0.3,0.32,0.32,0.54l0.4,4.21c0.05,0.55-0.5,0.96-1.01,0.74l-10.06-4.2
			c-0.27-0.11-0.45-0.38-0.45-0.67v-6.24C283.13,561.55,283.32,561.27,283.6,561.17z"/>
		<path class="st0" d="M230.32,568.64v-7.41c0-0.2-0.11-0.39-0.29-0.49L213,551.36c-0.08-0.05-0.17-0.07-0.27-0.07h-16.62
			c-0.65,0-0.78,0.93-0.14,1.09c8.01,2.08,22.38,7.13,14.68,15.3c-0.33,0.35-0.11,0.93,0.38,0.95l18.72,0.56
			C230.06,569.21,230.32,568.96,230.32,568.64z"/>
		<path class="st0" d="M236.65,573.43h40.73c0.79,0,1.29,0.83,0.93,1.53l-2.21,4.24c-0.18,0.34-0.53,0.56-0.91,0.56l-37.04,0.71
			c-0.47,0.01-0.89-0.3-1.02-0.75l-1.48-4.94C235.44,574.11,235.95,573.43,236.65,573.43z"/>
		<path class="st0" d="M297.25,538.55l-0.63-13.38c-0.02-0.37,0.14-0.73,0.42-0.98l3.01-2.62c0.46-0.4,1.15-0.4,1.61,0l2.17,1.91
			c0.29,0.26,0.44,0.64,0.41,1.03c-0.3,3.21-1.91,17.67-6.42,15.01C297.47,539.32,297.27,538.95,297.25,538.55z"/>
		<path class="st0" d="M294.76,581.58l-81.67,2.2l-2.37-10.35l-8.62,2.38l-4.94-14.01l-11.54-8.24h-7.69l10.44,10.16
			c0,0-7.14-1.37-13.19,7.42l-2.47-1.24l-7,12.5c0,0-4.26-2.61-7.55-1.92l-2.88-5.08l-14.83,2.33l4.4,6.73l8.79-1.37
			c0,0,7.55,4.12,8.93,6.04l8.38-0.55c0,0,2.33-2.2,3.43-1.92c1.1,0.27-0.55,15.11,16.76,16.07s18.54-11.4,18.54-11.4l37.91-1.37
			c0,0,7.83,7.14,9.61,7.69s13.87,0.14,13.87,0.14s2.2-0.82,2.33-2.06c0.14-1.24,0.6-5.63,5.72-6.59
			C284.23,588.17,291.41,585.29,294.76,581.58z"/>
		<path class="st0" d="M187.19,588.79l-0.62-15.38c0,0-8.24,0.41-8.72,7.69S187.19,588.79,187.19,588.79z"/>
		<path class="st0" d="M113.64,567.39c0,0-3.57,13.69,0,13.71c3.57,0.02,7.69-3.46,11.17,0.94c3.48,4.4,3.66,9.71-3.48,10.26
			c-7.14,0.55-14.83,0-15.02-9.52c-0.18-9.52-1.37-15.75,1.92-16.02C111.54,566.47,113.64,567.39,113.64,567.39z"/>
		<path class="st0" d="M201,495.33c0,0-25,1.65-26.1,26.92c-1.1,25.27,0,39.83,0,39.83l-54.85-1.01l-11.72,0.09l-27.65-4.3
			l86.16-3.3l-0.73-26.37C166.11,527.19,165.38,488.37,201,495.33z"/>
		<polygon class="st0" points="149.99,540.74 149.99,534.52 107.69,535.61 54.77,539.83 108.24,542.57 		"/>
		<polygon class="st0" points="150.91,527.19 150.91,519.32 108.24,521.15 56.78,528.28 108.61,528.28 		"/>
		<polygon class="st0" points="150.91,511.99 150.91,504.67 59.35,516.75 112.09,516.75 		"/>
		<polygon class="st0" points="166.48,480.74 166.48,468.22 85.53,503.2 127.16,492.58 131.68,491.48 		"/>
		<linearGradient id="SVGID_1_" gradientUnits="userSpaceOnUse" x1="105.96" y1="533.0455" x2="273.0561" y2="533.0455">
			<stop  offset="0" style="stop-color:#D41D00"/>
			<stop  offset="1" style="stop-color:#400000"/>
		</linearGradient>
		<path class="st1" d="M207,616.96c-47.32,3.6-85.93-38.06-85.93-85.02c0-46.95,35.12-83.87,82.58-83.87
			c27.91,0,51.74,13.6,69.41,30.77c-16.5-26-42.54-41.53-74.8-41.53c-50.97,0-92.3,42.86-92.3,95.73c0,52.87,41.32,95.73,92.3,95.73
			c36.85,0,57.77-20.28,62.71-27.42C243.63,609.05,237.62,614.63,207,616.96z"/>
	</g>
	<g>
		<path class="st0" d="M337.58,494.93h39.93c0.49,0,3.06,10.21,7.72,30.61c0.89,2.8,2.84,10.78,5.86,23.96h0.53l13.04-54.57h40.73
			v92.91H418.5v-59.36c-0.44,0-1.95,5.32-4.53,15.97c-0.36,0.93-4.35,15.4-11.98,43.39h-21.03c-0.4,0-2-5.59-4.79-16.77
			l-11.71-42.59h-0.27v59.36h-27.15v-92.37C337.09,495.11,337.27,494.93,337.58,494.93z"/>
		<path class="st0" d="M486.85,517.69c18.68,0,30.57,9.67,35.67,29.02c0.89,3.68,1.33,8.23,1.33,13.64v1.26h-48.98v0.27
			c1.46,3.73,3.59,6.28,6.39,7.65c2.62,1.38,5.1,2.06,7.46,2.06h0.93c3.11,0,6.08-1.77,8.92-5.32h23.96v0.27
			c-8.83,15.53-20.01,23.29-33.54,23.29c-12.6,0-22.27-3.74-29.02-11.21c-6.74-7.48-10.12-15.63-10.12-24.46
			c0-10.25,3.55-18.84,10.65-25.79C467.6,521.43,476.38,517.87,486.85,517.69z M474.61,545.91h24.49v-0.2
			c0-1.86-1.33-3.88-3.99-6.06c-2.44-1.24-4.93-1.86-7.45-1.86C480.42,537.79,476.07,540.5,474.61,545.91z"/>
		<path class="st0" d="M558.07,518.22c6.79,0,12.73,2.13,17.84,6.39h0.27v-4.66h26.69v56.3c0,16.46-5.7,27.46-17.1,33.01
			c-6.21,2.13-12.42,3.2-18.63,3.2c-13.49,0-22.76-2.22-27.82-6.66c-5.06-4.44-7.59-10.21-7.59-17.3h25.56
			c0.67,3.9,2.71,5.86,6.12,5.86c4.66,0,7.95-1.36,9.88-4.09c1.93-2.73,2.89-5.62,2.89-8.68v-3.19c-5.01,4.26-10.34,6.39-15.97,6.39
			h-3.46c-10.51,0-19.03-4.97-25.56-14.91c-3.02-5.28-4.53-11.22-4.53-17.84v-0.8c0-14.15,6.21-24.36,18.64-30.61
			C549.55,519.02,553.81,518.22,558.07,518.22z M554.87,549.37v2.13c0,6.52,1.77,10.96,5.32,13.31c1.91,0.53,3.5,0.8,4.79,0.8h1.6
			c5.68-0.58,8.52-2,8.52-4.26c1.06-0.93,1.69-4.75,1.86-11.45c0-6.92-2.84-10.91-8.52-11.98c-0.84,0-1.73-0.09-2.66-0.27
			c-4.79,0-7.99,1.86-9.58,5.59C555.31,545.51,554.87,547.55,554.87,549.37z"/>
		<path class="st0" d="M637.66,589.57c-4.26,0-8.52-0.8-12.78-2.4c-12.42-6.26-18.63-17.57-18.63-33.94v-0.8
			c0-6.61,1.51-12.56,4.53-17.84c6.52-9.94,15.04-14.91,25.56-14.91h3.46c5.63,0,11,2.13,16.11,6.39v-6.12h26.62l-0.07,67.88h-26.69
			v-4.66h-0.27C650.4,587.44,644.45,589.57,637.66,589.57z M634.47,555.09c0,4.04,0.44,7.19,1.33,9.45c1.6,3.73,4.79,5.59,9.58,5.59
			c0.93-0.18,1.82-0.27,2.66-0.27c5.68-1.11,8.52-6.21,8.52-15.31c-0.18-6.7-0.8-10.52-1.86-11.45c0-2.26-2.84-3.68-8.52-4.26h-1.6
			c-1.29,0-2.88,0.27-4.79,0.8c-3.55,2.35-5.32,6.79-5.32,13.31V555.09z"/>
		<path class="st0" d="M759.06,494.66c15.22,0,25.51,4.44,30.88,13.31c4.08,5.19,6.12,11.49,6.12,18.9v1.6
			c0,15.49-8.43,25.78-25.29,30.88c-4.66,1.06-9.72,1.6-15.17,1.6h-13.71v26.89h-25.82v-93.17H759.06z M741.89,516.49v22.36H754
			c8.34,0,13.13-0.97,14.38-2.93c1.42-2.22,2.13-4.61,2.13-7.19c0-8.16-5.24-12.25-15.71-12.25H741.89z"/>
		<path class="st0" d="M826.87,589.57c-4.26,0-8.52-0.8-12.78-2.4c-12.42-6.26-18.63-17.57-18.63-33.94v-0.8
			c0-6.61,1.51-12.56,4.53-17.84c6.52-9.94,15.04-14.91,25.56-14.91H829c5.63,0,11,2.13,16.11,6.39v-6.12h26.62l-0.07,67.88h-26.69
			v-4.66h-0.27C839.61,587.44,833.66,589.57,826.87,589.57z M823.68,555.09c0,4.04,0.44,7.19,1.33,9.45
			c1.6,3.73,4.79,5.59,9.58,5.59c0.93-0.18,1.82-0.27,2.66-0.27c5.68-1.11,8.52-6.21,8.52-15.31c-0.18-6.7-0.8-10.52-1.86-11.45
			c0-2.26-2.84-3.68-8.52-4.26h-1.6c-1.29,0-2.88,0.27-4.79,0.8c-3.55,2.35-5.32,6.79-5.32,13.31V555.09z"/>
		<path class="st0" d="M914.52,516.62h3.13c12.82,0,22.98,5.17,30.48,15.51c-0.53,0.67-6.57,4.88-18.1,12.65
			c-3.64-4.88-8.34-7.32-14.11-7.32c-6.79,0-11.58,3.86-14.38,11.58l-0.27,3.13v2.4c0,6.52,3.48,11.27,10.45,14.24
			c1.29,0.31,2.42,0.47,3.39,0.47h2.26c4.39,0,8.9-2.35,13.51-7.05c11.09,7.37,17.01,11.4,17.77,12.11
			c-5.72,7.23-12.49,12.05-20.3,14.44c-5.01,1.07-9.54,1.6-13.58,1.6c-15.09,0-26.82-6.59-35.21-19.77
			c-2.84-5.59-4.26-11.11-4.26-16.57v-1.07c0-11.98,5.55-21.9,16.64-29.75C899.02,518.82,906.54,516.62,914.52,516.62z"/>
		<path class="st0" d="M978.48,542.25l14.64-22.29h28.62l-22.29,33.94l22.29,33.94h-28.62l-14.64-22.29v22.29h-26.62v-93.17h26.62
			V542.25z"/>
	</g>
	<g>
		<path class="st2" d="M343.71,488.19h39.93c0.49,0,3.06,10.21,7.72,30.61c0.89,2.8,2.84,10.78,5.86,23.96h0.53l13.04-54.57h40.73
			v92.91h-26.89v-59.36c-0.44,0-1.95,5.32-4.53,15.97c-0.36,0.93-4.35,15.4-11.98,43.39h-21.03c-0.4,0-2-5.59-4.79-16.77
			l-11.71-42.59h-0.27v59.36h-27.15v-92.37C343.23,488.37,343.4,488.19,343.71,488.19z"/>
		<path class="st2" d="M492.99,510.95c18.68,0,30.57,9.67,35.67,29.02c0.89,3.68,1.33,8.23,1.33,13.64v1.26h-48.98v0.27
			c1.46,3.73,3.59,6.28,6.39,7.65c2.62,1.38,5.1,2.06,7.46,2.06h0.93c3.11,0,6.08-1.77,8.92-5.32h23.96v0.27
			c-8.83,15.53-20.01,23.29-33.54,23.29c-12.6,0-22.27-3.74-29.02-11.21c-6.74-7.48-10.12-15.63-10.12-24.46
			c0-10.25,3.55-18.84,10.65-25.79C473.74,514.69,482.52,511.13,492.99,510.95z M480.75,539.17h24.49v-0.2
			c0-1.86-1.33-3.88-3.99-6.06c-2.44-1.24-4.93-1.86-7.45-1.86C486.56,531.05,482.21,533.76,480.75,539.17z"/>
		<path class="st2" d="M564.21,511.48c6.79,0,12.73,2.13,17.84,6.39h0.27v-4.66H609v56.3c0,16.46-5.7,27.46-17.1,33.01
			c-6.21,2.13-12.42,3.2-18.63,3.2c-13.49,0-22.76-2.22-27.82-6.66c-5.06-4.44-7.59-10.21-7.59-17.3h25.56
			c0.67,3.9,2.71,5.86,6.12,5.86c4.66,0,7.95-1.36,9.88-4.09c1.93-2.73,2.89-5.62,2.89-8.68v-3.19c-5.01,4.26-10.34,6.39-15.97,6.39
			h-3.46c-10.51,0-19.03-4.97-25.56-14.91c-3.02-5.28-4.53-11.22-4.53-17.84v-0.8c0-14.15,6.21-24.36,18.64-30.61
			C555.69,512.28,559.95,511.48,564.21,511.48z M561.01,542.63v2.13c0,6.52,1.77,10.96,5.32,13.31c1.91,0.53,3.5,0.8,4.79,0.8h1.6
			c5.68-0.58,8.52-2,8.52-4.26c1.06-0.93,1.69-4.75,1.86-11.45c0-6.92-2.84-10.91-8.52-11.98c-0.84,0-1.73-0.09-2.66-0.27
			c-4.79,0-7.99,1.86-9.58,5.59C561.45,538.77,561.01,540.81,561.01,542.63z"/>
		<path class="st2" d="M643.8,582.83c-4.26,0-8.52-0.8-12.78-2.4c-12.42-6.26-18.63-17.57-18.63-33.94v-0.8
			c0-6.61,1.51-12.56,4.53-17.84c6.52-9.94,15.04-14.91,25.56-14.91h3.46c5.63,0,11,2.13,16.11,6.39v-6.12h26.62l-0.07,67.88h-26.69
			v-4.66h-0.27C656.54,580.7,650.59,582.83,643.8,582.83z M640.61,548.35c0,4.04,0.44,7.19,1.33,9.45c1.6,3.73,4.79,5.59,9.58,5.59
			c0.93-0.18,1.82-0.27,2.66-0.27c5.68-1.11,8.52-6.21,8.52-15.31c-0.18-6.7-0.8-10.52-1.86-11.45c0-2.26-2.84-3.68-8.52-4.26h-1.6
			c-1.29,0-2.88,0.27-4.79,0.8c-3.55,2.35-5.32,6.79-5.32,13.31V548.35z"/>
		<path class="st2" d="M765.19,487.93c15.22,0,25.51,4.44,30.88,13.31c4.08,5.19,6.12,11.49,6.12,18.9v1.6
			c0,15.49-8.43,25.78-25.29,30.88c-4.66,1.06-9.72,1.6-15.17,1.6h-13.71v26.89H722.2v-93.17H765.19z M748.02,509.75v22.36h12.11
			c8.34,0,13.13-0.97,14.38-2.93c1.42-2.22,2.13-4.61,2.13-7.19c0-8.16-5.24-12.25-15.71-12.25H748.02z"/>
		<path class="st2" d="M833.01,582.83c-4.26,0-8.52-0.8-12.78-2.4c-12.42-6.26-18.63-17.57-18.63-33.94v-0.8
			c0-6.61,1.51-12.56,4.53-17.84c6.52-9.94,15.04-14.91,25.56-14.91h3.46c5.63,0,11,2.13,16.11,6.39v-6.12h26.62l-0.07,67.88h-26.69
			v-4.66h-0.27C845.75,580.7,839.8,582.83,833.01,582.83z M829.82,548.35c0,4.04,0.44,7.19,1.33,9.45c1.6,3.73,4.79,5.59,9.58,5.59
			c0.93-0.18,1.82-0.27,2.66-0.27c5.68-1.11,8.52-6.21,8.52-15.31c-0.18-6.7-0.8-10.52-1.86-11.45c0-2.26-2.84-3.68-8.52-4.26h-1.6
			c-1.29,0-2.88,0.27-4.79,0.8c-3.55,2.35-5.32,6.79-5.32,13.31V548.35z"/>
		<path class="st2" d="M920.66,509.89h3.13c12.82,0,22.98,5.17,30.48,15.51c-0.53,0.67-6.57,4.88-18.1,12.65
			c-3.64-4.88-8.34-7.32-14.11-7.32c-6.79,0-11.58,3.86-14.38,11.58l-0.27,3.13v2.4c0,6.52,3.48,11.27,10.45,14.24
			c1.29,0.31,2.42,0.47,3.39,0.47h2.26c4.39,0,8.9-2.35,13.51-7.05c11.09,7.37,17.01,11.4,17.77,12.11
			c-5.72,7.23-12.49,12.05-20.3,14.44c-5.01,1.07-9.54,1.6-13.58,1.6c-15.09,0-26.82-6.59-35.21-19.77
			c-2.84-5.59-4.26-11.11-4.26-16.57v-1.07c0-11.98,5.55-21.9,16.64-29.75C905.16,512.08,912.68,509.89,920.66,509.89z"/>
		<path class="st2" d="M984.62,535.51l14.64-22.29h28.62l-22.29,33.94l22.29,33.94h-28.62l-14.64-22.29v22.29H958v-93.17h26.62
			V535.51z"/>
	</g>
</g>
</svg>
