<?xml version="1.0" encoding="utf-8"?>
<!-- Generator: Adobe Illustrator 25.0.0, SVG Export Plug-In . SVG Version: 6.00 Build 0)  -->
<svg version="1.1" id="Capa_1" xmlns="http://www.w3.org/2000/svg" xmlns:xlink="http://www.w3.org/1999/xlink" x="0px" y="0px"
	 viewBox="0 0 1080 1080" style="enable-background:new 0 0 1080 1080;" xml:space="preserve">
<style type="text/css">
	.st0{fill:#FFFFFF;}
	.st1{clip-path:url(#SVGID_2_);fill:#FFFFFF;}
	.st2{fill:url(#SVGID_3_);}
	.st3{fill:url(#SVGID_4_);}
	.st4{fill:url(#SVGID_5_);}
	.st5{fill:url(#SVGID_6_);}
	.st6{fill:url(#SVGID_7_);}
	.st7{fill:url(#SVGID_8_);}
	.st8{fill:url(#SVGID_9_);}
	.st9{fill:url(#SVGID_10_);}
	.st10{fill:url(#SVGID_11_);}
	.st11{fill:url(#SVGID_12_);}
	.st12{fill:url(#SVGID_13_);}
	.st13{fill:url(#SVGID_14_);}
	.st14{fill:url(#SVGID_15_);}
	.st15{fill:url(#SVGID_16_);}
	.st16{fill:url(#SVGID_17_);}
	.st17{fill:url(#SVGID_18_);}
	.st18{fill:url(#SVGID_19_);}
	.st19{fill:url(#SVGID_20_);}
	.st20{fill:url(#SVGID_21_);}
	.st21{fill:url(#SVGID_22_);}
	.st22{fill:url(#SVGID_23_);}
	.st23{fill:url(#SVGID_24_);}
	.st24{fill:url(#SVGID_25_);}
	.st25{fill:url(#SVGID_26_);}
	.st26{opacity:0.64;}
	.st27{fill:none;stroke:#1D1D1B;stroke-width:2;stroke-miterlimit:10;}
	.st28{fill:url(#SVGID_27_);}
	.st29{fill:url(#SVGID_28_);}
	.st30{fill:url(#SVGID_29_);}
	.st31{fill:url(#SVGID_30_);}
	.st32{fill:url(#SVGID_31_);}
	.st33{fill:url(#SVGID_32_);}
	.st34{fill:url(#SVGID_33_);}
	.st35{fill:url(#SVGID_34_);}
	.st36{opacity:0.4;}
	.st37{fill:#1D1D1B;stroke:#1D1D1B;stroke-width:18;stroke-linecap:round;stroke-linejoin:round;stroke-miterlimit:10;}
	.st38{fill:url(#SVGID_35_);}
	.st39{fill:url(#SVGID_36_);}
	.st40{fill:url(#SVGID_37_);}
	.st41{fill:url(#SVGID_38_);}
	.st42{fill:none;stroke:#1D1D1B;stroke-width:6;stroke-linecap:round;stroke-linejoin:round;stroke-miterlimit:10;}
	.st43{opacity:0.29;fill:#1D1D1B;}
	.st44{opacity:0.31;fill:#1D1D1B;}
</style>
<g>
	<path class="st0" d="M195.63,557.11c0-68.59,49.38-124.19,110.29-124.19c48.61,0,89.86,35.41,104.55,84.57
		c-13-56.4-60.17-98.18-116.37-98.18c-66.24,0-119.93,58.04-119.93,129.64c0,66.04,45.68,120.54,104.75,128.61
		C231.06,663.98,195.63,615.21,195.63,557.11z"/>
	<g>
		<g>
			<defs>
				<line id="SVGID_1_" x1="608.12" y1="505.38" x2="608.12" y2="633.84"/>
			</defs>
			<use xlink:href="#SVGID_1_"  style="overflow:visible;fill:#FFFFFF;"/>
			<clipPath id="SVGID_2_">
				<use xlink:href="#SVGID_1_"  style="overflow:visible;"/>
			</clipPath>
		</g>
		<rect x="604.26" y="505.38" class="st0" width="7.72" height="128.46"/>
	</g>
	<g>
		<linearGradient id="SVGID_3_" gradientUnits="userSpaceOnUse" x1="626.7396" y1="527.645" x2="651.4727" y2="527.645">
			<stop  offset="0.3631" style="stop-color:#706F6F"/>
			<stop  offset="1" style="stop-color:#B2B2B2"/>
		</linearGradient>
		<path class="st2" d="M632.87,537.43h-6.13v-19.58h15.79c6.52,0,8.5,2.26,8.5,5.08v0.32c0,2.79-2.34,3.89-3.63,4.29
			c2,0.53,3.71,2,3.71,4.5v2.87c0,1.58,0.21,2.08,0.37,2.39v0.13h-6.24c-0.18-0.24-0.29-0.55-0.29-1.24v-2.26
			c0-2.39-1.05-3.45-4.08-3.45h-8V537.43z M632.87,526.14h9.29c1.74,0,2.47-0.84,2.47-1.92v-0.03c0-1.03-0.68-1.89-2.47-1.89h-9.29
			V526.14z"/>
		<linearGradient id="SVGID_4_" gradientUnits="userSpaceOnUse" x1="652.5786" y1="527.645" x2="681.2585" y2="527.645">
			<stop  offset="0.3631" style="stop-color:#706F6F"/>
			<stop  offset="1" style="stop-color:#B2B2B2"/>
		</linearGradient>
		<path class="st3" d="M667.5,517.51c12.31,0,13.76,6.18,13.76,9.68v0.79c0,3.45-1.42,9.79-13.76,9.79h-1.13
			c-12.39,0-13.79-6.34-13.79-9.79v-0.79c0-3.5,1.39-9.68,13.79-9.68H667.5z M666.92,522.25c-6.71,0-7.92,2.87-7.92,5.13v0.32
			c0,2.24,1.32,5.32,7.92,5.32c6.58,0,7.92-3,7.92-5.26v-0.37C674.84,525.12,673.52,522.25,666.92,522.25z"/>
		<linearGradient id="SVGID_5_" gradientUnits="userSpaceOnUse" x1="681.995" y1="527.7897" x2="704.1226" y2="527.7897">
			<stop  offset="0.3631" style="stop-color:#706F6F"/>
			<stop  offset="1" style="stop-color:#B2B2B2"/>
		</linearGradient>
		<path class="st4" d="M681.99,529.25v-0.16h6.21c0.08,0.87,0.5,3.76,4.74,3.76h0.32c3.21,0,4.71-1.87,4.71-4.84v-10.16h6.16v10.31
			c0,4.05-1.92,9.55-10.26,9.55h-1.47C684.23,537.72,681.99,532.96,681.99,529.25z"/>
		<linearGradient id="SVGID_6_" gradientUnits="userSpaceOnUse" x1="705.9389" y1="527.645" x2="734.6189" y2="527.645">
			<stop  offset="0.3631" style="stop-color:#706F6F"/>
			<stop  offset="1" style="stop-color:#B2B2B2"/>
		</linearGradient>
		<path class="st5" d="M720.86,517.51c12.31,0,13.76,6.18,13.76,9.68v0.79c0,3.45-1.42,9.79-13.76,9.79h-1.13
			c-12.39,0-13.79-6.34-13.79-9.79v-0.79c0-3.5,1.39-9.68,13.79-9.68H720.86z M720.28,522.25c-6.71,0-7.92,2.87-7.92,5.13v0.32
			c0,2.24,1.32,5.32,7.92,5.32c6.58,0,7.92-3,7.92-5.26v-0.37C728.2,525.12,726.88,522.25,720.28,522.25z"/>
		<linearGradient id="SVGID_7_" gradientUnits="userSpaceOnUse" x1="744.0122" y1="527.645" x2="767.0614" y2="527.645">
			<stop  offset="0.3631" style="stop-color:#706F6F"/>
			<stop  offset="1" style="stop-color:#B2B2B2"/>
		</linearGradient>
		<path class="st6" d="M752.43,522.49h-8.42v-4.63h23.05v4.63h-8.45v14.95h-6.18V522.49z"/>
		<linearGradient id="SVGID_8_" gradientUnits="userSpaceOnUse" x1="768.9037" y1="527.7897" x2="794.0842" y2="527.7897">
			<stop  offset="0.3631" style="stop-color:#706F6F"/>
			<stop  offset="1" style="stop-color:#B2B2B2"/>
		</linearGradient>
		<path class="st7" d="M781.11,537.72c-10.5,0-12.21-6.68-12.21-10.37v-9.5h6.16v9.13c0,2.53,1.13,5.66,6.47,5.66
			c5.26,0,6.42-3.13,6.42-5.66v-9.13h6.13v9.5c0,3.68-1.97,10.37-12.02,10.37H781.11z"/>
		<linearGradient id="SVGID_9_" gradientUnits="userSpaceOnUse" x1="796.6898" y1="527.645" x2="821.4229" y2="527.645">
			<stop  offset="0.3631" style="stop-color:#706F6F"/>
			<stop  offset="1" style="stop-color:#B2B2B2"/>
		</linearGradient>
		<path class="st8" d="M802.82,537.43h-6.13v-19.58h15.79c6.52,0,8.5,2.26,8.5,5.08v0.32c0,2.79-2.34,3.89-3.63,4.29
			c2,0.53,3.71,2,3.71,4.5v2.87c0,1.58,0.21,2.08,0.37,2.39v0.13h-6.24c-0.18-0.24-0.29-0.55-0.29-1.24v-2.26
			c0-2.39-1.05-3.45-4.08-3.45h-8V537.43z M802.82,526.14h9.29c1.74,0,2.47-0.84,2.47-1.92v-0.03c0-1.03-0.68-1.89-2.47-1.89h-9.29
			V526.14z"/>
		<linearGradient id="SVGID_10_" gradientUnits="userSpaceOnUse" x1="823.318" y1="527.645" x2="829.4489" y2="527.645">
			<stop  offset="0.3631" style="stop-color:#706F6F"/>
			<stop  offset="1" style="stop-color:#B2B2B2"/>
		</linearGradient>
		<path class="st9" d="M829.45,537.43h-6.13v-19.58h6.13V537.43z"/>
		<linearGradient id="SVGID_11_" gradientUnits="userSpaceOnUse" x1="831.2903" y1="527.645" x2="856.0227" y2="527.645">
			<stop  offset="0.3631" style="stop-color:#706F6F"/>
			<stop  offset="1" style="stop-color:#B2B2B2"/>
		</linearGradient>
		<path class="st10" d="M831.29,530.78v-0.29h6.39c0.08,1.16,0.76,3.1,5.82,3.1h0.37c5.16,0,5.74-1.03,5.74-2.08
			c0-1.13-0.6-1.87-5.13-1.97l-3.37-0.08c-7.31-0.21-9.55-2.68-9.55-5.74v-0.24c0-2.92,1.76-5.97,10.66-5.97h1.82
			c9.26,0,11.37,3.24,11.37,6.18v0.26h-6.37c-0.1-0.76-0.55-2.34-5.66-2.34h-0.42c-4.74,0-5.08,0.87-5.08,1.68
			c0,0.82,0.5,1.63,4.53,1.68l3.29,0.05c7.37,0.16,10.34,1.92,10.34,5.82v0.37c0,3.24-1.63,6.55-11.47,6.55h-1.82
			C832.47,537.78,831.29,533.35,831.29,530.78z"/>
		<linearGradient id="SVGID_12_" gradientUnits="userSpaceOnUse" x1="857.9437" y1="527.645" x2="888.5967" y2="527.645">
			<stop  offset="0.3631" style="stop-color:#706F6F"/>
			<stop  offset="1" style="stop-color:#B2B2B2"/>
		</linearGradient>
		<path class="st11" d="M857.94,517.86h8.71l6.76,12.18l6.79-12.18h8.39v19.58h-6.05v-13.55l-7.71,13.55h-3.29l-7.71-13.55v13.55
			h-5.89V517.86z"/>
		<linearGradient id="SVGID_13_" gradientUnits="userSpaceOnUse" x1="890.6501" y1="527.645" x2="919.3301" y2="527.645">
			<stop  offset="0.3631" style="stop-color:#706F6F"/>
			<stop  offset="1" style="stop-color:#B2B2B2"/>
		</linearGradient>
		<path class="st12" d="M905.57,517.51c12.31,0,13.76,6.18,13.76,9.68v0.79c0,3.45-1.42,9.79-13.76,9.79h-1.13
			c-12.39,0-13.79-6.34-13.79-9.79v-0.79c0-3.5,1.39-9.68,13.79-9.68H905.57z M904.99,522.25c-6.71,0-7.92,2.87-7.92,5.13v0.32
			c0,2.24,1.32,5.32,7.92,5.32c6.58,0,7.92-3,7.92-5.26v-0.37C912.91,525.12,911.59,522.25,904.99,522.25z"/>
	</g>
	<g>
		<linearGradient id="SVGID_14_" gradientUnits="userSpaceOnUse" x1="636.7459" y1="579.395" x2="636.7459" y2="559.8197">
			<stop  offset="0.3631" style="stop-color:#706F6F"/>
			<stop  offset="1" style="stop-color:#B2B2B2"/>
		</linearGradient>
		<path class="st13" d="M646.93,559.82v4.45h-14.58v2.89h14.23v4.47h-14.23v3.21h14.84v4.55H626.3v-19.58H646.93z"/>
		<linearGradient id="SVGID_15_" gradientUnits="userSpaceOnUse" x1="661.4271" y1="579.395" x2="661.4271" y2="559.8197">
			<stop  offset="0.3631" style="stop-color:#706F6F"/>
			<stop  offset="1" style="stop-color:#B2B2B2"/>
		</linearGradient>
		<path class="st14" d="M647.82,579.4l9.74-9.89l-9.52-9.68h8.21l5.53,5.74l5.53-5.74h7.53l-9.39,9.55l9.6,10.02h-7.71l-6-6.08
			l-5.95,6.08H647.82z"/>
		<linearGradient id="SVGID_16_" gradientUnits="userSpaceOnUse" x1="688.0156" y1="579.395" x2="688.0156" y2="559.8197">
			<stop  offset="0.3631" style="stop-color:#706F6F"/>
			<stop  offset="1" style="stop-color:#B2B2B2"/>
		</linearGradient>
		<path class="st15" d="M682.24,572.87v6.53h-6.13v-19.58h14.68c7.02,0,9.13,2.79,9.13,6.37v0.26c0,3.5-2.13,6.42-9.13,6.42H682.24z
			 M682.24,568.48h8.45c1.92,0,2.84-0.74,2.84-2.05v-0.08c0-1.32-0.89-2.08-2.84-2.08h-8.45V568.48z"/>
		<linearGradient id="SVGID_17_" gradientUnits="userSpaceOnUse" x1="714.1566" y1="579.395" x2="714.1566" y2="559.8197">
			<stop  offset="0.3631" style="stop-color:#706F6F"/>
			<stop  offset="1" style="stop-color:#B2B2B2"/>
		</linearGradient>
		<path class="st16" d="M707.92,579.4h-6.13v-19.58h15.79c6.52,0,8.5,2.26,8.5,5.08v0.32c0,2.79-2.34,3.89-3.63,4.29
			c2,0.53,3.71,2,3.71,4.5v2.87c0,1.58,0.21,2.08,0.37,2.39v0.13h-6.24c-0.18-0.24-0.29-0.55-0.29-1.24v-2.26
			c0-2.39-1.05-3.45-4.08-3.45h-8V579.4z M707.92,568.11h9.29c1.74,0,2.47-0.84,2.47-1.92v-0.03c0-1.03-0.68-1.89-2.47-1.89h-9.29
			V568.11z"/>
		<linearGradient id="SVGID_18_" gradientUnits="userSpaceOnUse" x1="738.8638" y1="579.395" x2="738.8638" y2="559.8197">
			<stop  offset="0.3631" style="stop-color:#706F6F"/>
			<stop  offset="1" style="stop-color:#B2B2B2"/>
		</linearGradient>
		<path class="st17" d="M749.05,559.82v4.45h-14.58v2.89h14.23v4.47h-14.23v3.21h14.84v4.55h-20.89v-19.58H749.05z"/>
		<linearGradient id="SVGID_19_" gradientUnits="userSpaceOnUse" x1="763.0713" y1="579.7368" x2="763.0713" y2="559.4775">
			<stop  offset="0.3631" style="stop-color:#706F6F"/>
			<stop  offset="1" style="stop-color:#B2B2B2"/>
		</linearGradient>
		<path class="st18" d="M750.71,572.74v-0.29h6.39c0.08,1.16,0.76,3.1,5.82,3.1h0.37c5.16,0,5.74-1.03,5.74-2.08
			c0-1.13-0.6-1.87-5.13-1.97l-3.37-0.08c-7.31-0.21-9.55-2.68-9.55-5.74v-0.24c0-2.92,1.76-5.97,10.66-5.97h1.82
			c9.26,0,11.37,3.24,11.37,6.18v0.26h-6.37c-0.1-0.76-0.55-2.34-5.66-2.34h-0.42c-4.74,0-5.08,0.87-5.08,1.68
			c0,0.82,0.5,1.63,4.53,1.68l3.29,0.05c7.37,0.16,10.34,1.92,10.34,5.82v0.37c0,3.24-1.63,6.55-11.47,6.55h-1.82
			C751.89,579.74,750.71,575.32,750.71,572.74z"/>
		<linearGradient id="SVGID_20_" gradientUnits="userSpaceOnUse" x1="790.9093" y1="579.7368" x2="790.9093" y2="559.4775">
			<stop  offset="0.3631" style="stop-color:#706F6F"/>
			<stop  offset="1" style="stop-color:#B2B2B2"/>
		</linearGradient>
		<path class="st19" d="M791.49,559.48c12.31,0,13.76,6.18,13.76,9.68v0.79c0,3.45-1.42,9.79-13.76,9.79h-1.13
			c-12.39,0-13.79-6.34-13.79-9.79v-0.79c0-3.5,1.39-9.68,13.79-9.68H791.49z M790.91,564.21c-6.71,0-7.92,2.87-7.92,5.13v0.32
			c0,2.24,1.32,5.31,7.92,5.31c6.58,0,7.92-3,7.92-5.26v-0.37C798.83,567.08,797.51,564.21,790.91,564.21z"/>
		<linearGradient id="SVGID_21_" gradientUnits="userSpaceOnUse" x1="828.2721" y1="579.7368" x2="828.2721" y2="559.4775">
			<stop  offset="0.3631" style="stop-color:#706F6F"/>
			<stop  offset="1" style="stop-color:#B2B2B2"/>
		</linearGradient>
		<path class="st20" d="M827.72,579.74c-11.34,0-13.1-6.31-13.1-9.81v-0.76c0-3.55,1.55-9.68,13.1-9.68h1.08
			c11.37,0,13.08,5.42,13.1,7.71v0.29h-6.5c-0.16-0.53-0.92-3.26-7.16-3.26c-5.87,0-7.21,2.63-7.21,5.08v0.32
			c0,2.29,1.55,5.37,7.26,5.37c6.34,0,7-3.03,7.13-3.47h6.5v0.29c0,2.47-1.92,7.95-13.13,7.95H827.72z"/>
		<linearGradient id="SVGID_22_" gradientUnits="userSpaceOnUse" x1="856.2554" y1="579.6841" x2="856.2554" y2="559.8197">
			<stop  offset="0.3631" style="stop-color:#706F6F"/>
			<stop  offset="1" style="stop-color:#B2B2B2"/>
		</linearGradient>
		<path class="st21" d="M855.87,579.68c-10.5,0-12.21-6.68-12.21-10.37v-9.5h6.16v9.13c0,2.53,1.13,5.66,6.47,5.66
			c5.26,0,6.42-3.13,6.42-5.66v-9.13h6.13v9.5c0,3.68-1.97,10.37-12.02,10.37H855.87z"/>
		<linearGradient id="SVGID_23_" gradientUnits="userSpaceOnUse" x1="882.7651" y1="579.395" x2="882.7651" y2="559.8197">
			<stop  offset="0.3631" style="stop-color:#706F6F"/>
			<stop  offset="1" style="stop-color:#B2B2B2"/>
		</linearGradient>
		<path class="st22" d="M879.85,571.82l-10.47-12h7.6l6.08,7.21l6.18-7.21h6.92l-10.18,12v7.58h-6.13V571.82z"/>
		<linearGradient id="SVGID_24_" gradientUnits="userSpaceOnUse" x1="905.2086" y1="579.395" x2="905.2086" y2="559.8197">
			<stop  offset="0.3631" style="stop-color:#706F6F"/>
			<stop  offset="1" style="stop-color:#B2B2B2"/>
		</linearGradient>
		<path class="st23" d="M910.92,575.82h-11.87l-1.76,3.58h-6.24l9.89-19.58h7.95l10.47,19.58h-6.6L910.92,575.82z M904.87,564.06
			l-3.63,7.34h7.42L904.87,564.06z"/>
		<linearGradient id="SVGID_25_" gradientUnits="userSpaceOnUse" x1="932.9821" y1="579.395" x2="932.9821" y2="559.8197">
			<stop  offset="0.3631" style="stop-color:#706F6F"/>
			<stop  offset="1" style="stop-color:#B2B2B2"/>
		</linearGradient>
		<path class="st24" d="M927.13,559.82l12.5,12.31v-12.31h6.05v19.58h-6.05l-13.29-12.97v12.97h-6.05v-19.58H927.13z"/>
		<linearGradient id="SVGID_26_" gradientUnits="userSpaceOnUse" x1="962.0701" y1="579.7368" x2="962.0701" y2="559.4775">
			<stop  offset="0.3631" style="stop-color:#706F6F"/>
			<stop  offset="1" style="stop-color:#B2B2B2"/>
		</linearGradient>
		<path class="st25" d="M962.65,559.48c12.31,0,13.76,6.18,13.76,9.68v0.79c0,3.45-1.42,9.79-13.76,9.79h-1.13
			c-12.39,0-13.79-6.34-13.79-9.79v-0.79c0-3.5,1.39-9.68,13.79-9.68H962.65z M962.07,564.21c-6.71,0-7.92,2.87-7.92,5.13v0.32
			c0,2.24,1.32,5.31,7.92,5.31c6.58,0,7.92-3,7.92-5.26v-0.37C969.99,567.08,968.67,564.21,962.07,564.21z"/>
	</g>
	<g class="st26">
		<path class="st27" d="M647.94,559.81v4.45h-14.58v2.89h14.23v4.47h-14.23v3.21h14.84v4.55h-20.89v-19.58H647.94z"/>
		<path class="st27" d="M648.83,579.38l9.74-9.89l-9.52-9.68h8.21l5.53,5.74l5.53-5.74h7.53l-9.39,9.55l9.6,10.02h-7.71l-6-6.08
			l-5.95,6.08H648.83z"/>
		<path class="st27" d="M683.25,572.86v6.53h-6.13v-19.58h14.68c7.02,0,9.13,2.79,9.13,6.37v0.26c0,3.5-2.13,6.42-9.13,6.42H683.25z
			 M683.25,568.46h8.45c1.92,0,2.84-0.74,2.84-2.05v-0.08c0-1.32-0.89-2.08-2.84-2.08h-8.45V568.46z"/>
		<path class="st27" d="M708.93,579.38h-6.13v-19.58h15.79c6.52,0,8.5,2.26,8.5,5.08v0.32c0,2.79-2.34,3.89-3.63,4.29
			c2,0.53,3.71,2,3.71,4.5v2.87c0,1.58,0.21,2.08,0.37,2.39v0.13h-6.24c-0.18-0.24-0.29-0.55-0.29-1.24v-2.26
			c0-2.39-1.05-3.45-4.08-3.45h-8V579.38z M708.93,568.09h9.29c1.74,0,2.47-0.84,2.47-1.92v-0.03c0-1.03-0.68-1.89-2.47-1.89h-9.29
			V568.09z"/>
		<path class="st27" d="M750.05,559.81v4.45h-14.58v2.89h14.23v4.47h-14.23v3.21h14.84v4.55h-20.89v-19.58H750.05z"/>
		<path class="st27" d="M751.71,572.72v-0.29h6.39c0.08,1.16,0.76,3.1,5.82,3.1h0.37c5.16,0,5.74-1.03,5.74-2.08
			c0-1.13-0.6-1.87-5.13-1.97l-3.37-0.08c-7.31-0.21-9.55-2.68-9.55-5.74v-0.24c0-2.92,1.76-5.97,10.66-5.97h1.82
			c9.26,0,11.37,3.24,11.37,6.18v0.26h-6.37c-0.1-0.76-0.55-2.34-5.66-2.34h-0.42c-4.74,0-5.08,0.87-5.08,1.68
			c0,0.82,0.5,1.63,4.53,1.68l3.29,0.05c7.37,0.16,10.34,1.92,10.34,5.82v0.37c0,3.24-1.63,6.55-11.47,6.55h-1.82
			C752.9,579.72,751.71,575.3,751.71,572.72z"/>
		<path class="st27" d="M792.5,559.46c12.31,0,13.76,6.18,13.76,9.68v0.79c0,3.45-1.42,9.79-13.76,9.79h-1.13
			c-12.39,0-13.79-6.34-13.79-9.79v-0.79c0-3.5,1.39-9.68,13.79-9.68H792.5z M791.92,564.2c-6.71,0-7.92,2.87-7.92,5.13v0.32
			c0,2.24,1.32,5.31,7.92,5.31c6.58,0,7.92-3,7.92-5.26v-0.37C799.84,567.07,798.52,564.2,791.92,564.2z"/>
		<path class="st27" d="M828.73,579.72c-11.34,0-13.1-6.31-13.1-9.81v-0.76c0-3.55,1.55-9.68,13.1-9.68h1.08
			c11.37,0,13.08,5.42,13.1,7.71v0.29h-6.5c-0.16-0.53-0.92-3.26-7.16-3.26c-5.87,0-7.21,2.63-7.21,5.08v0.32
			c0,2.29,1.55,5.37,7.26,5.37c6.34,0,7-3.03,7.13-3.47h6.5v0.29c0,2.47-1.92,7.95-13.13,7.95H828.73z"/>
		<path class="st27" d="M856.88,579.67c-10.5,0-12.21-6.68-12.21-10.37v-9.5h6.16v9.13c0,2.53,1.13,5.66,6.47,5.66
			c5.26,0,6.42-3.13,6.42-5.66v-9.13h6.13v9.5c0,3.68-1.97,10.37-12.02,10.37H856.88z"/>
		<path class="st27" d="M880.85,571.8l-10.47-12h7.6l6.08,7.21l6.18-7.21h6.92l-10.18,12v7.58h-6.13V571.8z"/>
		<path class="st27" d="M911.93,575.8h-11.87l-1.76,3.58h-6.24l9.89-19.58h7.95l10.47,19.58h-6.6L911.93,575.8z M905.87,564.04
			l-3.63,7.34h7.42L905.87,564.04z"/>
		<path class="st27" d="M928.14,559.81l12.5,12.31v-12.31h6.05v19.58h-6.05l-13.29-12.97v12.97h-6.05v-19.58H928.14z"/>
		<path class="st27" d="M963.66,559.46c12.31,0,13.76,6.18,13.76,9.68v0.79c0,3.45-1.42,9.79-13.76,9.79h-1.13
			c-12.39,0-13.79-6.34-13.79-9.79v-0.79c0-3.5,1.39-9.68,13.79-9.68H963.66z M963.08,564.2c-6.71,0-7.92,2.87-7.92,5.13v0.32
			c0,2.24,1.32,5.31,7.92,5.31c6.58,0,7.92-3,7.92-5.26v-0.37C971,567.07,969.68,564.2,963.08,564.2z"/>
	</g>
	<g>
		<linearGradient id="SVGID_27_" gradientUnits="userSpaceOnUse" x1="627.5106" y1="611.5434" x2="658.1635" y2="611.5434">
			<stop  offset="0.3631" style="stop-color:#706F6F"/>
			<stop  offset="1" style="stop-color:#B2B2B2"/>
		</linearGradient>
		<path class="st28" d="M627.51,601.76h8.71l6.76,12.18l6.79-12.18h8.39v19.58h-6.05v-13.55l-7.71,13.55h-3.29l-7.71-13.55v13.55
			h-5.89V601.76z"/>
		<linearGradient id="SVGID_28_" gradientUnits="userSpaceOnUse" x1="661.0062" y1="611.5434" x2="681.8972" y2="611.5434">
			<stop  offset="0.3631" style="stop-color:#706F6F"/>
			<stop  offset="1" style="stop-color:#B2B2B2"/>
		</linearGradient>
		<path class="st29" d="M681.63,601.76v4.45h-14.58v2.89h14.23v4.47h-14.23v3.21h14.84v4.55h-20.89v-19.58H681.63z"/>
		<linearGradient id="SVGID_29_" gradientUnits="userSpaceOnUse" x1="683.4505" y1="611.543" x2="710.9458" y2="611.543">
			<stop  offset="0.3631" style="stop-color:#706F6F"/>
			<stop  offset="1" style="stop-color:#B2B2B2"/>
		</linearGradient>
		<path class="st30" d="M696.5,621.67c-10.6,0-13.05-5.92-13.05-9.84v-0.74c0-3.82,2-9.68,13.26-9.68h1.13
			c10.97,0,12.84,4.76,12.97,7.42v0.03h-6.52c-0.16-0.45-0.84-2.79-6.97-2.79c-5.97,0-7.45,2.58-7.45,5.29v0.29
			c0,2.55,2,5.26,7.39,5.26c5.84,0,7.58-2.26,7.58-2.79v-0.05h-7.68v-3.71h13.79v10.97h-3.68c-0.08-0.71-0.45-2.24-0.79-3.05
			c-0.82,1-3.37,3.39-9.42,3.39H696.5z"/>
		<linearGradient id="SVGID_30_" gradientUnits="userSpaceOnUse" x1="711.6571" y1="611.5434" x2="739.9684" y2="611.5434">
			<stop  offset="0.3631" style="stop-color:#706F6F"/>
			<stop  offset="1" style="stop-color:#B2B2B2"/>
		</linearGradient>
		<path class="st31" d="M731.52,617.75h-11.87l-1.76,3.58h-6.24l9.89-19.58h7.95l10.47,19.58h-6.6L731.52,617.75z M725.47,605.99
			l-3.63,7.34h7.42L725.47,605.99z"/>
		<linearGradient id="SVGID_31_" gradientUnits="userSpaceOnUse" x1="748.994" y1="611.5434" x2="772.8064" y2="611.5434">
			<stop  offset="0.3631" style="stop-color:#706F6F"/>
			<stop  offset="1" style="stop-color:#B2B2B2"/>
		</linearGradient>
		<path class="st32" d="M755.12,614.81v6.53h-6.13v-19.58h14.68c7.02,0,9.13,2.79,9.13,6.37v0.26c0,3.5-2.13,6.42-9.13,6.42H755.12z
			 M755.12,610.41h8.45c1.92,0,2.84-0.74,2.84-2.05v-0.08c0-1.32-0.89-2.08-2.84-2.08h-8.45V610.41z"/>
		<linearGradient id="SVGID_32_" gradientUnits="userSpaceOnUse" x1="769.5959" y1="611.5434" x2="797.9073" y2="611.5434">
			<stop  offset="0.3631" style="stop-color:#706F6F"/>
			<stop  offset="1" style="stop-color:#B2B2B2"/>
		</linearGradient>
		<path class="st33" d="M789.46,617.75H777.6l-1.76,3.58h-6.24l9.89-19.58h7.95l10.47,19.58h-6.6L789.46,617.75z M783.41,605.99
			l-3.63,7.34h7.42L783.41,605.99z"/>
		<linearGradient id="SVGID_33_" gradientUnits="userSpaceOnUse" x1="796.4613" y1="611.543" x2="823.7723" y2="611.543">
			<stop  offset="0.3631" style="stop-color:#706F6F"/>
			<stop  offset="1" style="stop-color:#B2B2B2"/>
		</linearGradient>
		<path class="st34" d="M809.56,621.67c-11.34,0-13.1-6.31-13.1-9.81v-0.76c0-3.55,1.55-9.68,13.1-9.68h1.08
			c11.37,0,13.08,5.42,13.1,7.71v0.29h-6.5c-0.16-0.53-0.92-3.26-7.16-3.26c-5.87,0-7.21,2.63-7.21,5.08v0.32
			c0,2.29,1.55,5.37,7.26,5.37c6.34,0,7-3.03,7.13-3.47h6.5v0.29c0,2.47-1.92,7.95-13.13,7.95H809.56z"/>
		<linearGradient id="SVGID_34_" gradientUnits="userSpaceOnUse" x1="825.747" y1="611.5434" x2="850.2171" y2="611.5434">
			<stop  offset="0.3631" style="stop-color:#706F6F"/>
			<stop  offset="1" style="stop-color:#B2B2B2"/>
		</linearGradient>
		<path class="st35" d="M825.75,621.33v-19.58h6.13v8.16l10.02-8.16h7.79l-11.26,8.95l11.79,10.63h-8l-10.34-9.24v9.24H825.75z"/>
	</g>
	<g class="st26">
		<path class="st27" d="M628.33,601.77h8.71l6.76,12.18l6.79-12.18h8.39v19.58h-6.05v-13.55l-7.71,13.55h-3.29l-7.71-13.55v13.55
			h-5.89V601.77z"/>
		<path class="st27" d="M682.46,601.77v4.45h-14.58v2.89h14.23v4.47h-14.23v3.21h14.84v4.55h-20.89v-19.58H682.46z"/>
		<path class="st27" d="M697.32,621.69c-10.6,0-13.05-5.92-13.05-9.84v-0.74c0-3.82,2-9.68,13.26-9.68h1.13
			c10.97,0,12.84,4.76,12.97,7.42v0.03h-6.52c-0.16-0.45-0.84-2.79-6.97-2.79c-5.97,0-7.45,2.58-7.45,5.29v0.29
			c0,2.55,2,5.26,7.39,5.26c5.84,0,7.58-2.26,7.58-2.79v-0.05h-7.68v-3.71h13.79v10.97h-3.68c-0.08-0.71-0.45-2.24-0.79-3.05
			c-0.82,1-3.37,3.39-9.42,3.39H697.32z"/>
		<path class="st27" d="M732.34,617.77h-11.87l-1.76,3.58h-6.24l9.89-19.58h7.95l10.47,19.58h-6.6L732.34,617.77z M726.29,606
			l-3.63,7.34h7.42L726.29,606z"/>
		<path class="st27" d="M755.95,614.82v6.53h-6.13v-19.58h14.68c7.02,0,9.13,2.79,9.13,6.37v0.26c0,3.5-2.13,6.42-9.13,6.42H755.95z
			 M755.95,610.42h8.45c1.92,0,2.84-0.74,2.84-2.05v-0.08c0-1.32-0.89-2.08-2.84-2.08h-8.45V610.42z"/>
		<path class="st27" d="M790.28,617.77h-11.87l-1.76,3.58h-6.24l9.89-19.58h7.95l10.47,19.58h-6.6L790.28,617.77z M784.23,606
			l-3.63,7.34h7.42L784.23,606z"/>
		<path class="st27" d="M810.39,621.69c-11.34,0-13.1-6.31-13.1-9.81v-0.76c0-3.55,1.55-9.68,13.1-9.68h1.08
			c11.37,0,13.08,5.42,13.1,7.71v0.29h-6.5c-0.16-0.53-0.92-3.26-7.16-3.26c-5.87,0-7.21,2.63-7.21,5.08v0.32
			c0,2.29,1.55,5.37,7.26,5.37c6.34,0,7-3.03,7.13-3.47h6.5v0.29c0,2.47-1.92,7.95-13.13,7.95H810.39z"/>
		<path class="st27" d="M826.57,621.34v-19.58h6.13v8.16l10.02-8.16h7.79l-11.26,8.95l11.79,10.63h-8l-10.34-9.24v9.24H826.57z"/>
	</g>
	<g>
		<path class="st0" d="M246.9,630.22H241v-3.25h16.16v3.25h-5.92v10.48h-4.33V630.22z"/>
		<path class="st0" d="M262.92,640.7h-4.3v-13.72h11.07c4.57,0,5.96,1.59,5.96,3.56v0.22c0,1.96-1.64,2.73-2.55,3.01
			c1.4,0.37,2.6,1.4,2.6,3.15v2.01c0,1.11,0.15,1.46,0.26,1.68v0.09h-4.37c-0.13-0.17-0.2-0.39-0.2-0.87v-1.59
			c0-1.68-0.74-2.42-2.86-2.42h-5.61V640.7z M262.92,632.79h6.51c1.22,0,1.73-0.59,1.73-1.35v-0.02c0-0.72-0.48-1.33-1.73-1.33
			h-6.51V632.79z"/>
		<path class="st0" d="M290.05,638.19h-8.32l-1.24,2.51h-4.37l6.94-13.72h5.57l7.34,13.72h-4.63L290.05,638.19z M285.81,629.95
			l-2.55,5.15h5.2L285.81,629.95z"/>
		<path class="st0" d="M301.41,626.98l8.76,8.63v-8.63h4.24v13.72h-4.24l-9.32-9.09v9.09h-4.24v-13.72H301.41z"/>
		<path class="st0" d="M315.7,636.03v-0.2h4.48c0.06,0.81,0.54,2.18,4.08,2.18h0.26c3.62,0,4.02-0.72,4.02-1.46
			c0-0.79-0.42-1.31-3.6-1.38l-2.36-0.06c-5.13-0.15-6.7-1.88-6.7-4.02v-0.17c0-2.05,1.24-4.19,7.47-4.19h1.27
			c6.49,0,7.97,2.27,7.97,4.34v0.18h-4.46c-0.07-0.53-0.39-1.64-3.97-1.64h-0.3c-3.32,0-3.56,0.61-3.56,1.18
			c0,0.57,0.35,1.14,3.17,1.18l2.31,0.04c5.16,0.11,7.25,1.35,7.25,4.08v0.26c0,2.27-1.14,4.59-8.04,4.59h-1.27
			C316.54,640.94,315.7,637.84,315.7,636.03z"/>
		<path class="st0" d="M338.69,640.7h-4.3v-13.72h11.07c4.57,0,5.96,1.59,5.96,3.56v0.22c0,1.96-1.64,2.73-2.55,3.01
			c1.4,0.37,2.6,1.4,2.6,3.15v2.01c0,1.11,0.15,1.46,0.26,1.68v0.09h-4.37c-0.13-0.17-0.2-0.39-0.2-0.87v-1.59
			c0-1.68-0.74-2.42-2.86-2.42h-5.61V640.7z M338.69,632.79h6.51c1.22,0,1.73-0.59,1.73-1.35v-0.02c0-0.72-0.48-1.33-1.73-1.33
			h-6.51V632.79z"/>
		<path class="st0" d="M362.96,626.74c8.63,0,9.65,4.34,9.65,6.79v0.55c0,2.42-1,6.86-9.65,6.86h-0.79c-8.69,0-9.67-4.45-9.67-6.86
			v-0.55c0-2.45,0.98-6.79,9.67-6.79H362.96z M362.56,630.06c-4.7,0-5.55,2.01-5.55,3.6v0.22c0,1.57,0.92,3.73,5.55,3.73
			c4.61,0,5.55-2.1,5.55-3.69v-0.26C368.11,632.07,367.19,630.06,362.56,630.06z"/>
		<path class="st0" d="M374.05,626.98h6.11l4.74,8.54l4.76-8.54h5.88v13.72h-4.24v-9.5l-5.4,9.5h-2.31l-5.41-9.5v9.5h-4.13V626.98z"
			/>
		<path class="st0" d="M411.99,626.98v3.12h-10.22v2.03h9.98v3.14h-9.98v2.25h10.4v3.19h-14.65v-13.72H411.99z"/>
		<path class="st0" d="M418.15,640.7h-4.3v-13.72h11.07c4.57,0,5.96,1.59,5.96,3.56v0.22c0,1.96-1.64,2.73-2.55,3.01
			c1.4,0.37,2.6,1.4,2.6,3.15v2.01c0,1.11,0.15,1.46,0.26,1.68v0.09h-4.37c-0.13-0.17-0.2-0.39-0.2-0.87v-1.59
			c0-1.68-0.74-2.42-2.86-2.42h-5.61V640.7z M418.15,632.79h6.51c1.22,0,1.73-0.59,1.73-1.35v-0.02c0-0.72-0.48-1.33-1.73-1.33
			h-6.51V632.79z"/>
		<path class="st0" d="M442.42,626.74c8.63,0,9.65,4.34,9.65,6.79v0.55c0,2.42-1,6.86-9.65,6.86h-0.79c-8.69,0-9.67-4.45-9.67-6.86
			v-0.55c0-2.45,0.98-6.79,9.67-6.79H442.42z M442.02,630.06c-4.7,0-5.55,2.01-5.55,3.6v0.22c0,1.57,0.92,3.73,5.55,3.73
			c4.61,0,5.55-2.1,5.55-3.69v-0.26C447.57,632.07,446.65,630.06,442.02,630.06z"/>
		<path class="st0" d="M467.79,640.94c-7.43,0-9.15-4.15-9.15-6.9v-0.52c0-2.67,1.4-6.79,9.3-6.79h0.79c7.69,0,9,3.34,9.09,5.2v0.02
			h-4.57c-0.11-0.31-0.59-1.96-4.89-1.96c-4.19,0-5.22,1.81-5.22,3.71v0.2c0,1.79,1.4,3.69,5.18,3.69c4.1,0,5.31-1.59,5.31-1.96
			v-0.04h-5.39v-2.6h9.67v7.69h-2.58c-0.06-0.5-0.31-1.57-0.55-2.14c-0.57,0.7-2.36,2.38-6.6,2.38H467.79z"/>
		<path class="st0" d="M484.05,640.7h-4.3v-13.72h11.07c4.57,0,5.96,1.59,5.96,3.56v0.22c0,1.96-1.64,2.73-2.55,3.01
			c1.4,0.37,2.6,1.4,2.6,3.15v2.01c0,1.11,0.15,1.46,0.26,1.68v0.09h-4.37c-0.13-0.17-0.2-0.39-0.2-0.87v-1.59
			c0-1.68-0.74-2.42-2.86-2.42h-5.61V640.7z M484.05,632.79h6.51c1.22,0,1.73-0.59,1.73-1.35v-0.02c0-0.72-0.48-1.33-1.73-1.33
			h-6.51V632.79z"/>
		<path class="st0" d="M508.33,626.74c8.63,0,9.65,4.34,9.65,6.79v0.55c0,2.42-1,6.86-9.65,6.86h-0.79c-8.69,0-9.67-4.45-9.67-6.86
			v-0.55c0-2.45,0.98-6.79,9.67-6.79H508.33z M507.92,630.06c-4.7,0-5.55,2.01-5.55,3.6v0.22c0,1.57,0.92,3.73,5.55,3.73
			c4.61,0,5.55-2.1,5.55-3.69v-0.26C513.47,632.07,512.55,630.06,507.92,630.06z"/>
		<path class="st0" d="M527.81,640.9c-7.36,0-8.56-4.68-8.56-7.27v-6.66h4.32v6.4c0,1.77,0.79,3.97,4.54,3.97
			c3.69,0,4.5-2.19,4.5-3.97v-6.4h4.3v6.66c0,2.58-1.38,7.27-8.43,7.27H527.81z"/>
		<path class="st0" d="M543.02,636.13v4.57h-4.3v-13.72h10.29c4.93,0,6.4,1.95,6.4,4.46v0.18c0,2.45-1.49,4.5-6.4,4.5H543.02z
			 M543.02,633.04h5.92c1.35,0,1.99-0.52,1.99-1.44v-0.06c0-0.92-0.63-1.46-1.99-1.46h-5.92V633.04z"/>
	</g>
	<g class="st36">
		<path class="st37" d="M312.13,616.61l36.32-93.73h94.59c4.3,0,7.69,1.67,10.17,5c2.47,3.33,2.96,6.92,1.45,10.75L444,566.04
			c-1.83,4.75-4.87,8.51-9.12,11.28c-4.25,2.78-9.01,4.16-14.28,4.16h-2.74l19.05,35.13h-37.45l-19.05-35.13h-17.27l-13.56,35.13
			H312.13z M375.89,546.35l-5.81,14.84h40.19l5.81-14.84H375.89z"/>
		<path class="st37" d="M308.26,546.2l-27.28,70.26h-37.45l27.28-70.26h-37.45l9.04-23.47c47.13,0,82.48,0.05,106.05,0.15
			l-9.04,23.47L308.26,546.2z"/>
		<path class="st37" d="M580.71,546.35h-75.06l-18.08,46.79h37.45l9.04-23.32h37.45l-12.11,31.34c-1.83,4.75-4.87,8.51-9.12,11.28
			c-4.25,2.78-9.07,4.16-14.45,4.16h-94.91l30.34-78.28c1.83-4.74,4.87-8.5,9.12-11.28c4.25-2.78,9.06-4.16,14.45-4.16h94.91
			L580.71,546.35z"/>
	</g>
	<path class="st0" d="M311.5,615.93l35.45-97.53c0.24-0.67,0.88-1.12,1.6-1.12h94.36c4.35,0,7.77,1.79,10.27,5.38
		c2.5,3.59,2.99,7.45,1.47,11.58l-10.76,29.51c-1.85,5.11-4.92,9.16-9.21,12.15c-4.3,2.99-9.11,4.48-14.43,4.48l0,0
		c-1.27,0-2.09,1.34-1.51,2.47l16.73,32.89c0.58,1.13-0.25,2.47-1.52,2.47h-34.01c-0.64,0-1.23-0.36-1.51-0.93l-18.29-35.97
		c-0.29-0.57-0.88-0.93-1.51-0.93h-15.21c-0.72,0-1.35,0.45-1.6,1.12l-12.88,35.59c-0.24,0.67-0.88,1.12-1.6,1.12H313.1
		C311.92,618.21,311.1,617.03,311.5,615.93z M374.67,543.66l-4.62,12.58c-0.41,1.11,0.41,2.29,1.6,2.29h36.98
		c0.71,0,1.35-0.44,1.6-1.11l4.62-12.58c0.41-1.11-0.41-2.29-1.6-2.29h-36.98C375.55,542.55,374.91,543,374.67,543.66z"/>
	<g>
		<linearGradient id="SVGID_35_" gradientUnits="userSpaceOnUse" x1="131.9781" y1="563.6734" x2="381.0866" y2="563.6734">
			<stop  offset="0.3631" style="stop-color:#3CBFFF"/>
			<stop  offset="1" style="stop-color:#B2B2B2"/>
		</linearGradient>
		<path class="st38" d="M276.31,710.84c-79.71,1.04-144.33-66.28-144.33-148.04c0-74.04,52.99-135.38,122.19-146.31
			c-54.89,17.19-94.76,68.91-94.76,130.04c0,75.17,60.29,136.12,134.67,136.12c0,0,55.6,0.51,87.01-32.65
			C381.09,650,347.53,709.91,276.31,710.84z"/>
		<linearGradient id="SVGID_36_" gradientUnits="userSpaceOnUse" x1="204.8982" y1="506.7011" x2="393.712" y2="506.7011">
			<stop  offset="0.3631" style="stop-color:#3CBFFF"/>
			<stop  offset="1" style="stop-color:#B2B2B2"/>
		</linearGradient>
		<path class="st39" d="M320.65,467.3c27.76,0,53.21,9.42,73.06,25.09c-18.45-29.29-49.99-48.6-85.83-48.6
			c-56.87,0-102.98,48.62-102.98,108.6c0,5.86,0.45,11.6,1.3,17.21C210.15,512.48,259.86,467.3,320.65,467.3z"/>
		<linearGradient id="SVGID_37_" gradientUnits="userSpaceOnUse" x1="232.8573" y1="568.476" x2="346.8459" y2="568.476">
			<stop  offset="0.3631" style="stop-color:#3CBFFF"/>
			<stop  offset="1" style="stop-color:#B2B2B2"/>
		</linearGradient>
		<path class="st40" d="M306.73,545.06l-26.27,72.12c-0.39,1.06-1.39,1.76-2.52,1.76h-32.12c-1.86,0-3.16-1.85-2.52-3.6l24.93-68.46
			c0.64-1.75-0.66-3.6-2.52-3.6h-30.18c-1.86,0-3.15-1.85-2.52-3.59l7.19-19.91c0.38-1.06,1.4-1.77,2.53-1.77
			c44.22,0,78.03,0.05,101.44,0.15c1.85,0.01,3.13,1.85,2.5,3.59l-7.19,19.92c-0.39,1.07-1.4,1.78-2.54,1.77l-27.69-0.14
			C308.13,543.29,307.12,543.99,306.73,545.06z"/>
		<linearGradient id="SVGID_38_" gradientUnits="userSpaceOnUse" x1="440.9321" y1="567.908" x2="588.7156" y2="567.908">
			<stop  offset="0.3631" style="stop-color:#3CBFFF"/>
			<stop  offset="1" style="stop-color:#B2B2B2"/>
		</linearGradient>
		<path class="st41" d="M578.75,542.72h-71.61c-1.26,0-2.39,0.79-2.82,1.98l-16.09,44.39c-0.71,1.95,0.74,4.02,2.82,4.02h31.46
			c1.26,0,2.39-0.79,2.82-1.97l7.7-21.17c0.43-1.18,1.56-1.97,2.82-1.97h31.46c2.08,0,3.52,2.06,2.82,4.02l-10.77,29.73
			c-1.85,5.11-4.92,9.16-9.21,12.15c-4.3,2.99-9.16,4.48-14.59,4.48h-91.6c-2.08,0-3.53-2.07-2.82-4.02l29.19-80.28
			c1.85-5.11,4.92-9.16,9.21-12.15c4.29-2.99,9.16-4.48,14.59-4.48h91.6c2.08,0,3.52,2.06,2.82,4.01l-6.97,19.28
			C581.14,541.93,580.01,542.72,578.75,542.72z"/>
	</g>
	<g class="st36">
		<path class="st42" d="M313.87,619.67l36.32-102.06h94.59c4.3,0,7.69,1.81,10.17,5.44c2.47,3.63,2.96,7.53,1.45,11.71l-10.65,29.84
			c-1.83,5.17-4.87,9.26-9.12,12.28c-4.25,3.02-9.01,4.53-14.28,4.53h-2.74l19.05,38.25h-37.45l-19.05-38.25h-17.27l-13.56,38.25
			H313.87z M377.63,543.17l-5.81,16.16h40.19l5.81-16.16H377.63z"/>
		<path class="st42" d="M310,543l-27.28,76.5h-37.45l27.28-76.5h-37.45l9.04-25.56c47.13,0,82.48,0.06,106.05,0.16l-9.04,25.56
			L310,543z"/>
		<path class="st42" d="M582.45,543.17H507.4l-18.08,50.95h37.45l9.04-25.39h37.45l-12.11,34.13c-1.83,5.17-4.87,9.26-9.12,12.28
			c-4.25,3.02-9.07,4.53-14.45,4.53h-94.91l30.34-85.24c1.83-5.17,4.87-9.26,9.12-12.28c4.25-3.02,9.06-4.53,14.45-4.53h94.91
			L582.45,543.17z"/>
	</g>
	<path class="st43" d="M206.2,569.61c0,0-10.46-87.39,75.69-117.45c0,0,64.25-22.34,111.83,40.24c0,0-37.93-65.38-113.85-44.53
		C279.86,447.86,194.93,473.08,206.2,569.61z"/>
	<path class="st43" d="M409.89,515.08c0,0-15.83-77.07-99.96-91.47c0,0-52.51-7.09-98.78,38.65s-28.55,118.23-26.65,124.29
		c1.89,6.06,20.2,74.73,94.42,90.99c0,0-37.62-2.83-68.48-35.73c-30.86-32.9-34.44-69.15-35.01-74.07
		c-0.57-4.93-5.1-33.95,6.6-65.04c0,0,11.03-38.85,49.45-64.34c0,0,30.2-23.75,76.4-18.21
		C307.87,420.15,384.33,424.75,409.89,515.08z"/>
	<path class="st44" d="M393.96,487.6c-23.13-44.26-67.23-74.17-117.84-74.17c-18.36,0-35.87,3.95-51.83,11.08
		c15.16-5.85,31.54-9.04,48.62-9.04C324.35,415.46,369.35,444.4,393.96,487.6z"/>
	<path class="st43" d="M272.91,711.37c-77.82-1.8-140.94-66.24-140.94-147.95c0-63.77,38.43-118.12,92.31-138.91
		c-48.86,21.84-83.22,73.62-83.22,134.02c0,80.14,60.47,145.1,135.05,145.1c0,0,56,3.75,104.97-53.63
		C381.09,650,344.28,713.02,272.91,711.37z"/>
	<g class="st26">
		<path class="st27" d="M633.73,537.45h-6.13v-19.58h15.79c6.52,0,8.5,2.26,8.5,5.08v0.32c0,2.79-2.34,3.89-3.63,4.29
			c2,0.53,3.71,2,3.71,4.5v2.87c0,1.58,0.21,2.08,0.37,2.39v0.13h-6.24c-0.18-0.24-0.29-0.55-0.29-1.24v-2.26
			c0-2.39-1.05-3.45-4.08-3.45h-8V537.45z M633.73,526.16h9.29c1.74,0,2.47-0.84,2.47-1.92v-0.03c0-1.03-0.68-1.89-2.47-1.89h-9.29
			V526.16z"/>
		<path class="st27" d="M668.35,517.53c12.31,0,13.76,6.18,13.76,9.68V528c0,3.45-1.42,9.79-13.76,9.79h-1.13
			c-12.39,0-13.79-6.34-13.79-9.79v-0.79c0-3.5,1.39-9.68,13.79-9.68H668.35z M667.77,522.26c-6.71,0-7.92,2.87-7.92,5.13v0.32
			c0,2.24,1.32,5.32,7.92,5.32c6.58,0,7.92-3,7.92-5.26v-0.37C675.69,525.13,674.38,522.26,667.77,522.26z"/>
		<path class="st27" d="M682.85,529.26v-0.16h6.21c0.08,0.87,0.5,3.76,4.74,3.76h0.32c3.21,0,4.71-1.87,4.71-4.84v-10.16h6.16v10.31
			c0,4.05-1.92,9.55-10.26,9.55h-1.47C685.09,537.74,682.85,532.97,682.85,529.26z"/>
		<path class="st27" d="M721.71,517.53c12.31,0,13.76,6.18,13.76,9.68V528c0,3.45-1.42,9.79-13.76,9.79h-1.13
			c-12.39,0-13.79-6.34-13.79-9.79v-0.79c0-3.5,1.39-9.68,13.79-9.68H721.71z M721.13,522.26c-6.71,0-7.92,2.87-7.92,5.13v0.32
			c0,2.24,1.32,5.32,7.92,5.32c6.58,0,7.92-3,7.92-5.26v-0.37C729.05,525.13,727.74,522.26,721.13,522.26z"/>
		<path class="st27" d="M753.29,522.5h-8.42v-4.63h23.05v4.63h-8.45v14.95h-6.18V522.5z"/>
		<path class="st27" d="M781.97,537.74c-10.5,0-12.21-6.68-12.21-10.37v-9.5h6.16V527c0,2.53,1.13,5.66,6.47,5.66
			c5.26,0,6.42-3.13,6.42-5.66v-9.13h6.13v9.5c0,3.68-1.97,10.37-12.02,10.37H781.97z"/>
		<path class="st27" d="M803.68,537.45h-6.13v-19.58h15.79c6.52,0,8.5,2.26,8.5,5.08v0.32c0,2.79-2.34,3.89-3.63,4.29
			c2,0.53,3.71,2,3.71,4.5v2.87c0,1.58,0.21,2.08,0.37,2.39v0.13h-6.24c-0.18-0.24-0.29-0.55-0.29-1.24v-2.26
			c0-2.39-1.05-3.45-4.08-3.45h-8V537.45z M803.68,526.16h9.29c1.74,0,2.47-0.84,2.47-1.92v-0.03c0-1.03-0.68-1.89-2.47-1.89h-9.29
			V526.16z"/>
		<path class="st27" d="M830.3,537.45h-6.13v-19.58h6.13V537.45z"/>
		<path class="st27" d="M832.15,530.79v-0.29h6.39c0.08,1.16,0.76,3.1,5.82,3.1h0.37c5.16,0,5.74-1.03,5.74-2.08
			c0-1.13-0.6-1.87-5.13-1.97l-3.37-0.08c-7.31-0.21-9.55-2.68-9.55-5.74v-0.24c0-2.92,1.76-5.97,10.66-5.97h1.82
			c9.26,0,11.37,3.24,11.37,6.18v0.26h-6.37c-0.1-0.76-0.55-2.34-5.66-2.34h-0.42c-4.74,0-5.08,0.87-5.08,1.68
			c0,0.82,0.5,1.63,4.53,1.68l3.29,0.05c7.37,0.16,10.34,1.92,10.34,5.82v0.37c0,3.24-1.63,6.55-11.47,6.55h-1.82
			C833.33,537.79,832.15,533.37,832.15,530.79z"/>
		<path class="st27" d="M858.8,517.87h8.71l6.76,12.18l6.79-12.18h8.39v19.58h-6.05V523.9l-7.71,13.55h-3.29l-7.71-13.55v13.55
			h-5.89V517.87z"/>
		<path class="st27" d="M906.42,517.53c12.31,0,13.76,6.18,13.76,9.68V528c0,3.45-1.42,9.79-13.76,9.79h-1.13
			c-12.39,0-13.79-6.34-13.79-9.79v-0.79c0-3.5,1.39-9.68,13.79-9.68H906.42z M905.84,522.26c-6.71,0-7.92,2.87-7.92,5.13v0.32
			c0,2.24,1.32,5.32,7.92,5.32c6.58,0,7.92-3,7.92-5.26v-0.37C913.76,525.13,912.45,522.26,905.84,522.26z"/>
	</g>
</g>
</svg>
